<?xml version="1.0" encoding="UTF-8" standalone="no"?>
<!-- Created with Inkscape (http://www.inkscape.org/) -->

<svg
   xmlns:dc="http://purl.org/dc/elements/1.1/"
   xmlns:cc="http://creativecommons.org/ns#"
   xmlns:rdf="http://www.w3.org/1999/02/22-rdf-syntax-ns#"
   xmlns:svg="http://www.w3.org/2000/svg"
   xmlns="http://www.w3.org/2000/svg"
   xmlns:sodipodi="http://sodipodi.sourceforge.net/DTD/sodipodi-0.dtd"
   xmlns:inkscape="http://www.inkscape.org/namespaces/inkscape"
   width="215.95247mm"
   height="40.00938mm"
   viewBox="0 0 215.95247 40.00938"
   version="1.1"
   id="svg883"
   inkscape:version="0.92.4 (5da689c313, 2019-01-14)"
   sodipodi:docname="logo.svg">
  <defs
     id="defs877" />
  <sodipodi:namedview
     id="base"
     pagecolor="#ffffff"
     bordercolor="#666666"
     borderopacity="1.0"
     inkscape:pageopacity="0.0"
     inkscape:pageshadow="2"
     inkscape:zoom="0.35"
     inkscape:cx="-693.3294"
     inkscape:cy="524.17971"
     inkscape:document-units="mm"
     inkscape:current-layer="layer1"
     showgrid="false"
     fit-margin-top="0"
     fit-margin-left="0"
     fit-margin-right="0"
     fit-margin-bottom="0"
     inkscape:window-width="1920"
     inkscape:window-height="1017"
     inkscape:window-x="-8"
     inkscape:window-y="-8"
     inkscape:window-maximized="1" />
  <metadata
     id="metadata880">
    <rdf:RDF>
      <cc:Work
         rdf:about="">
        <dc:format>image/svg+xml</dc:format>
        <dc:type
           rdf:resource="http://purl.org/dc/dcmitype/StillImage" />
        <dc:title></dc:title>
      </cc:Work>
    </rdf:RDF>
  </metadata>
  <g
     inkscape:label="Layer 1"
     inkscape:groupmode="layer"
     id="layer1"
     transform="translate(-105.95829,-247.51317)">
    <g
       id="text1181"
       style="font-style:normal;font-variant:normal;font-weight:800;font-stretch:normal;font-size:12.43013px;line-height:1.25;font-family:'Open Sans';-inkscape-font-specification:'Open Sans Ultra-Bold';letter-spacing:0px;word-spacing:0px;opacity:1;fill:#ffffff;fill-opacity:1;stroke:none;stroke-width:0.31075326"
       aria-label="オシアネテイ"
       transform="translate(48.424252,202.74308)"
       inkscape:export-xdpi="96"
       inkscape:export-ydpi="96">
      <path
         sodipodi:nodetypes="ccccsccccccccscscsc"
         inkscape:connector-curvature="0"
         id="path882"
         style="font-style:normal;font-variant:normal;font-weight:bold;font-stretch:normal;font-family:GN-Koharuiro_Sunray;-inkscape-font-specification:'GN-Koharuiro_Sunray Bold';letter-spacing:4.76249981px;fill:#ffffff;stroke-width:0.31075326"
         d="m 196.57785,84.767328 v -2.294233 c -0.35607,0.412719 -0.89018,0.886132 -1.60232,1.420239 -0.71214,0.534107 -1.63469,0.825439 -2.76765,0.873994 0.77688,-0.534107 1.41619,-1.096538 1.91793,-1.687293 0.50174,-0.590755 0.99539,-1.428333 1.48093,-2.512732 h -3.15608 v -0.849716 h 4.12719 v -0.946826 h 1.82082 v 0.946826 h 1.21388 c 0,0.566477 -0.23468,0.849716 -0.70405,0.849716 h -0.50983 v 3.593085 c 0,0.169943 -0.0607,0.315609 -0.18208,0.436997 -0.1133,0.113295 -0.25492,0.169943 -0.42486,0.169943 z" />
      <path
         sodipodi:nodetypes="ccccccccccccccccccc"
         inkscape:connector-curvature="0"
         id="path884"
         style="font-style:normal;font-variant:normal;font-weight:bold;font-stretch:normal;font-family:GN-Koharuiro_Sunray;-inkscape-font-specification:'GN-Koharuiro_Sunray Bold';letter-spacing:4.76249981px;fill:#ffffff;stroke-width:0.31075326"
         d="m 205.2369,84.779467 -0.29133,-1.72371 c 1.7318,-0.226591 3.09944,-0.526014 4.10291,-0.898271 1.00348,-0.372257 2.02314,-0.865901 3.05898,-1.480933 -0.63121,1.132954 -1.54162,2.055503 -2.73123,2.767646 -1.1896,0.70405 -2.56937,1.149139 -4.13933,1.335268 z m 3.56881,-5.790208 -0.54625,1.298852 c -0.55838,-0.372257 -1.03584,-0.643357 -1.43238,-0.8133 -0.39653,-0.169943 -0.88208,-0.408672 -1.45665,-0.716189 0.76879,-0.121388 1.4081,-0.149711 1.91793,-0.08497 0.51792,0.06474 1.02371,0.169942 1.51735,0.315607 z m -0.437,1.711571 -0.54624,1.298852 c -0.55838,-0.372257 -1.03584,-0.63931 -1.43238,-0.801161 -0.39653,-0.169943 -0.88208,-0.412719 -1.45666,-0.728328 0.7688,-0.121388 1.40811,-0.149711 1.91793,-0.08497 0.51793,0.06474 1.02371,0.169943 1.51735,0.315609 z" />
      <path
         sodipodi:nodetypes="ccssscscccccccc"
         inkscape:connector-curvature="0"
         id="path886"
         style="font-style:normal;font-variant:normal;font-weight:bold;font-stretch:normal;font-family:GN-Koharuiro_Sunray;-inkscape-font-specification:'GN-Koharuiro_Sunray Bold';letter-spacing:4.76249981px;fill:#ffffff;stroke-width:0.31075326"
         d="m 217.58615,79.875392 v -0.861855 h 6.32432 c 0.46128,0 0.69191,0.254915 0.69191,0.764744 0,0.582663 -0.23468,1.14914 -0.70405,1.699432 -0.46936,0.550293 -1.2422,0.789022 -2.31851,0.716189 0.44509,-0.364164 0.73642,-0.748559 0.87399,-1.153186 0.13758,-0.404626 0.20232,-0.793067 0.19422,-1.165324 z m -0.12139,4.867658 c 0.42082,-0.356071 0.84972,-0.890178 1.28672,-1.602321 0.44509,-0.720235 0.67977,-1.675154 0.70405,-2.864757 l 2.08787,0.133527 c -0.18612,1.21388 -0.65954,2.25377 -1.42024,3.119671 -0.7526,0.857809 -1.63874,1.262435 -2.6584,1.21388 z" />
      <path
         sodipodi:nodetypes="ccccccscccccccccccc"
         inkscape:connector-curvature="0"
         id="path888"
         style="font-style:normal;font-variant:normal;font-weight:bold;font-stretch:normal;font-family:GN-Koharuiro_Sunray;-inkscape-font-specification:'GN-Koharuiro_Sunray Bold';letter-spacing:4.76249981px;fill:#ffffff;stroke-width:0.31075326"
         d="m 230.36026,80.166723 v -0.861855 h 2.18498 V 78.57654 h 1.82082 v 0.728328 h 1.73585 c 0.46128,0 0.69191,0.254915 0.69191,0.764745 -0.12138,0.655495 -0.50578,1.209833 -1.15319,1.663015 0.63932,0.04855 1.35551,0.137571 2.14857,0.267054 l -0.48555,1.565905 c -1.10058,-0.526015 -2.02313,-0.946826 -2.76765,-1.262435 -0.0567,0.01619 -0.11331,0.03642 -0.16994,0.06069 v 2.391343 h -1.82082 V 82.88581 c -1.0844,0.267053 -1.95434,0.404626 -2.60984,0.412719 2.88904,-1.464749 4.4428,-2.508685 4.6613,-3.13181 z" />
      <path
         sodipodi:nodetypes="csccccscccccccc"
         inkscape:connector-curvature="0"
         id="path890"
         style="font-style:normal;font-variant:normal;font-weight:bold;font-stretch:normal;font-family:GN-Koharuiro_Sunray;-inkscape-font-specification:'GN-Koharuiro_Sunray Bold';letter-spacing:4.76249981px;fill:#ffffff;stroke-width:0.31075326"
         d="m 249.71359,78.989259 c 0,0.566477 -0.23468,0.849716 -0.70405,0.849716 h -5.58384 v -0.849716 z m 0.437,1.675155 c 0,0.566477 -0.23468,0.849716 -0.70405,0.849716 h -1.43238 c -0.0485,0.809253 -0.38437,1.58209 -1.00752,2.31851 -0.6393,0.647403 -1.73989,0.950873 -3.30175,0.91041 0.98729,-0.412719 1.6266,-0.922549 1.91793,-1.529489 0.29134,-0.615032 0.437,-1.181509 0.437,-1.699431 h -2.92545 v -0.849716 z" />
      <path
         sodipodi:nodetypes="csccccccc"
         inkscape:connector-curvature="0"
         id="path892"
         style="font-style:normal;font-variant:normal;font-weight:bold;font-stretch:normal;font-family:GN-Koharuiro_Sunray;-inkscape-font-specification:'GN-Koharuiro_Sunray Bold';letter-spacing:4.76249981px;fill:#ffffff;stroke-width:0.31075326"
         d="m 255.49575,81.696212 c 1.20579,-0.404627 2.34684,-0.873994 3.42314,-1.408101 1.07631,-0.534107 1.86129,-1.0844 2.35493,-1.650877 l 1.85724,0.995382 c -0.60694,0.558385 -1.53353,1.023705 -2.77979,1.395962 v 3.726611 h -1.82082 v -3.301753 c -1.04393,0.194221 -2.0555,0.275146 -3.0347,0.242776 z" />
    </g>
    <g
       style="opacity:1"
       id="g960"
       transform="translate(55.184523,204.2699)"
       inkscape:export-xdpi="96"
       inkscape:export-ydpi="96">
      <path
         inkscape:connector-curvature="0"
         id="rect946-7"
         d="m 71.32753,61.22484 c -0.216233,0 -0.39031,0.174076 -0.39031,0.39031 v 0.126053 c 0,0.216233 0.174077,0.390309 0.39031,0.390309 h 6.678292 c 0.216233,0 0.39031,-0.174076 0.39031,-0.390309 V 61.61515 c 0,-0.216234 -0.174077,-0.39031 -0.39031,-0.39031 z m -20.390252,0.04252 c 0.03823,0.30334 0.08516,0.60552 0.140734,0.906166 H 64.86439 c 0.216234,0 0.390309,-0.174075 0.390309,-0.390309 V 61.65767 c 0,-0.216233 -0.174075,-0.39031 -0.390309,-0.39031 z m 27.648184,2.458292 c -0.204703,0 -0.369553,0.164846 -0.369553,0.369554 v 0.118966 c 0,0.204707 0.16485,0.369553 0.369553,0.369553 h 3.171582 c 0.103085,-0.283277 0.198127,-0.569416 0.285012,-0.858073 z M 55.46254,64.242018 c -0.216235,0 -0.39031,0.174076 -0.39031,0.39031 v 0.125547 c 0,0.216233 0.174075,0.390309 0.39031,0.390309 h 2.542326 c 0.216235,0 0.390309,-0.174076 0.390309,-0.390309 v -0.125547 c 0,-0.216234 -0.174074,-0.39031 -0.390309,-0.39031 z m 5.873371,0.01671 c -0.216232,0 -0.39031,0.174076 -0.39031,0.390309 v 0.125547 c 0,0.216234 0.174078,0.39031 0.39031,0.39031 h 13.440112 c 0.216233,0 0.39031,-0.174076 0.39031,-0.39031 v -0.125548 c 0,-0.216234 -0.174077,-0.39031 -0.39031,-0.39031 z m -8.77361,2.229472 c 0.129138,0.253499 0.265028,0.503501 0.407523,0.749739 h 3.975991 c 0.178847,0 0.322474,-0.144135 0.322474,-0.322981 V 66.81118 c 0,-0.178844 -0.143627,-0.322979 -0.322474,-0.322979 z m 20.381647,0.162502 c -0.21413,0 -0.386259,0.172635 -0.386259,0.386766 v 0.12403 c 0,0.21413 0.172129,0.386763 0.386259,0.386763 h 7.39563 c 0.181437,-0.293539 0.35331,-0.592883 0.515349,-0.897559 z m -18.790034,2.333252 c 0.307524,0.396505 0.633565,0.778294 0.977039,1.144097 h 12.36132 c 0.272936,0 0.492569,-0.21963 0.492569,-0.492569 V 69.47703 c 0,-0.272939 -0.219633,-0.493075 -0.492569,-0.493075 z m 21.081266,0.387272 c -0.259283,0 -0.467761,0.208983 -0.467761,0.46827 v 0.150353 c 0,0.259283 0.208478,0.46827 0.467761,0.46827 h 2.825315 c 0.342614,-0.347162 0.669143,-0.70984 0.978556,-1.086893 z m -10.100459,2.731658 c -0.206368,0 -0.372591,0.166221 -0.372591,0.372591 v 0.119979 c 0,0.206369 0.166223,0.372591 0.372591,0.372591 h 9.676231 c 0.454084,-0.266445 0.894713,-0.555184 1.320272,-0.865161 z m -4.979862,0.02227 c -0.216233,0 -0.39031,0.174075 -0.39031,0.39031 v 0.125545 c 0,0.216236 0.174077,0.390311 0.39031,0.390311 h 2.542328 c 0.216233,0 0.390309,-0.174075 0.390309,-0.390311 v -0.125548 c 0,-0.216235 -0.174076,-0.39031 -0.390309,-0.39031 z"
         style="opacity:1;fill:#ffffff;fill-opacity:1;stroke:none;stroke-width:0.01800315;stroke-linecap:butt;stroke-linejoin:bevel;stroke-miterlimit:4;stroke-dasharray:none;stroke-opacity:1;paint-order:stroke fill markers;enable-background:new"
         sodipodi:nodetypes="sssssssssccsssscssssccsssssssssssssssssssccsssscssssccsccsssscssssccsssssccscsssssscc" />
      <path
         inkscape:connector-curvature="0"
         id="path1107"
         d="m 66.739497,43.243268 c -8.799902,0.0013 -15.940107,7.121826 -15.965734,15.92169 H 82.706241 C 82.68061,50.3647 75.539793,43.244028 66.739497,43.243268 Z"
         style="opacity:1;fill:#ffffff;fill-opacity:1;stroke:none;stroke-width:1.07737184;stroke-linecap:butt;stroke-linejoin:bevel;stroke-miterlimit:4;stroke-dasharray:none;stroke-opacity:1;paint-order:stroke fill markers"
         sodipodi:nodetypes="cccc" />
      <g
         transform="matrix(0.97963022,0,0,0.97963022,-39.371363,38.836973)"
         id="text1112"
         style="font-style:normal;font-variant:normal;font-weight:800;font-stretch:normal;font-size:43.86327362px;line-height:1.25;font-family:'Open Sans';-inkscape-font-specification:'Open Sans Ultra-Bold';letter-spacing:0px;word-spacing:0px;fill:#ffffff;fill-opacity:1;stroke:none;stroke-width:1.09658182"
         aria-label="CEANITY">
        <path
           style="font-style:normal;font-variant:normal;font-weight:bold;font-stretch:normal;font-family:OpineHeavy;-inkscape-font-specification:'OpineHeavy Bold';fill:#ffffff;stroke-width:4.06013727"
           d="m 430.49805,170.58789 -12.47461,34.51758 v 47.21094 l 12.3457,35.20312 h 64.69922 l 11.66406,-32.80664 h -45.50781 v -10.06836 h 33.84375 v -31.50586 h -33.84375 v -9.74414 h 33.84375 l 11.66406,-32.80664 z"
           transform="matrix(0.2700849,0,0,0.2700849,38.187475,-40.688525)"
           id="path1127"
           inkscape:connector-curvature="0" />
        <path
           sodipodi:nodetypes="ccccccccczcccz"
           inkscape:connector-curvature="0"
           id="path1129"
           style="font-style:normal;font-variant:normal;font-weight:bold;font-stretch:normal;font-family:OpineHeavy;-inkscape-font-specification:'OpineHeavy Bold';fill:#ffffff;stroke-width:1.09658182"
           d="m 173.93955,36.966187 11.229,-31.5815575 h 12.15013 l 11.22899,31.5815575 h -12.63262 l -0.87726,-4.035422 h -7.58835 l -0.92113,4.035422 z m 19.73847,-12.018537 -1.71066,-7.544484 c -0.4271,-2.201797 -0.88757,-2.602069 -1.40363,0 l -1.71067,7.544484 z" />
        <path
           style="font-style:normal;font-variant:normal;font-weight:bold;font-stretch:normal;font-family:OpineHeavy;-inkscape-font-specification:'OpineHeavy Bold';fill:#ffffff;stroke-width:4.06013727"
           d="m 631.81641,170.58789 v 98.62584 l 6.50869,18.3058 h 35.55381 l -0.97461,-44.01172 c -0.25477,-11.93081 5.88492,-0.75492 6.6582,0.48633 l 26.95898,43.52539 h 43.03907 V 170.58789 h -42.06446 l 0.8125,46.12305 c 0.2256,12.25771 -4.11768,3.65303 -6.33398,0.16211 l -27.77149,-46.28516 z"
           transform="matrix(0.2700849,0,0,0.2700849,38.187475,-40.688525)"
           id="path1131"
           inkscape:connector-curvature="0"
           sodipodi:nodetypes="cccccccccccccc" />
        <path
           inkscape:connector-curvature="0"
           id="path1133"
           style="font-style:normal;font-variant:normal;font-weight:bold;font-stretch:normal;font-family:OpineHeavy;-inkscape-font-specification:'OpineHeavy Bold';fill:#ffffff;stroke-width:1.09658182"
           d="M 242.67382,36.966187 V 5.3846295 h 11.69843 V 36.966187 Z"
           sodipodi:nodetypes="ccccc" />
        <path
           inkscape:connector-curvature="0"
           id="path1135"
           style="font-style:normal;font-variant:normal;font-weight:bold;font-stretch:normal;font-family:OpineHeavy;-inkscape-font-specification:'OpineHeavy Bold';fill:#ffffff;stroke-width:1.09658182"
           d="M 256.41369,15.473182 V 5.3846295 h 25.96615 L 279.441,15.473182 h -5.21973 V 36.966187 H 262.55364 V 15.473182 Z"
           sodipodi:nodetypes="ccccccccc" />
        <path
           style="font-style:normal;font-variant:normal;font-weight:bold;font-stretch:normal;font-family:OpineHeavy;-inkscape-font-specification:'OpineHeavy Bold';fill:#ffffff;stroke-width:4.06013727"
           d="m 911.69141,170.58789 -5.54493,19.03516 c 9.48837,16.3565 19.48197,33.58452 27.67774,47.71289 v 50.18359 H 976.375 v -50.18359 l 39.1387,-66.74805 h -46.28518 l -12.01758,25.01172 c -1.33044,2.6213 -2.72745,2.98147 -4.22266,0 L 940.9707,170.58789 Z"
           transform="matrix(0.2700849,0,0,0.2700849,38.187475,-40.688525)"
           id="path1137"
           inkscape:connector-curvature="0" />
      </g>
      <path
         d="m 109.94739,44.094882 -3.28262,9.15028 c -5.23876,0 -6.842999,0.320619 -9.031435,2.395803 -1.094203,1.066849 -1.641305,2.379894 -1.641305,3.939135 0,1.094203 0.328261,2.120019 0.984783,3.077449 2.195088,2.217124 3.225137,3.078208 9.687957,3.078208 l 3.24158,9.31441 c -3.26611,0 -6.35899,-0.02796 -9.15028,-7.6e-4 -0.930069,0 -1.887499,-0.08207 -2.872281,-0.246195 -3.939134,-0.683877 -7.126003,-2.434603 -9.560607,-5.252178 -2.407249,-2.817576 -3.610873,-6.127543 -3.610873,-9.929902 0,-1.121559 0.123098,-2.256795 0.369294,-3.405709 0.629167,-3.063771 2.12002,-5.676183 4.472558,-7.837236 2.379894,-2.188408 5.252181,-3.542485 8.61686,-4.062232 0.79329,-0.10942 1.35407,-0.16413 1.68233,-0.16413 0.328269,-0.02735 0.588139,-0.04103 0.779619,-0.04103 4.51854,0 6.00727,-0.01591 9.31442,-0.01591 z"
         style="font-style:normal;font-variant:normal;font-weight:normal;font-stretch:normal;font-size:41.03264618px;line-height:1.25;font-family:OpineHeavy;-inkscape-font-specification:OpineHeavy;letter-spacing:0px;word-spacing:0px;fill:#ffffff;fill-opacity:1;stroke:none;stroke-width:1.02581608"
         id="path861"
         inkscape:connector-curvature="0"
         sodipodi:nodetypes="cccsccccccsccccccc" />
    </g>
  </g>
</svg>
